<svg width="31" height="30" viewBox="0 0 31 30" fill="none" xmlns="http://www.w3.org/2000/svg">
<path d="M27.1459 13.2469C27.1038 13.0261 26.9103 12.8664 26.685 12.8664H15.7502C15.4911 12.8664 15.2811 13.0758 15.2811 13.3341V17.8244C15.2811 18.0827 15.4911 18.2921 15.7502 18.2921H21.1196C20.5755 19.3608 19.7276 20.2634 18.6809 20.8754C17.7211 21.4372 16.6212 21.7341 15.5 21.7341C12.8879 21.7341 10.5174 20.0962 9.60116 17.6579C9.33632 16.9556 9.20205 16.2143 9.20205 15.4545C9.20205 14.7558 9.31646 14.0691 9.5419 13.4137C10.4156 10.8784 12.8101 9.17497 15.5001 9.17497C16.682 9.17497 17.8335 9.5032 18.8298 10.1242C19.0004 10.2305 19.22 10.2165 19.3756 10.0894L23.0635 7.07909C23.1719 6.99059 23.2349 6.85842 23.2354 6.71882C23.2359 6.57913 23.1737 6.44659 23.066 6.35735C20.9465 4.60272 18.2595 3.63635 15.5 3.63635C8.9643 3.63635 3.64709 8.93796 3.64709 15.4545C3.64709 17.4094 4.13566 19.3462 5.06 21.0555C7.13385 24.8904 11.1343 27.2727 15.5 27.2727C18.232 27.2727 20.898 26.3238 23.0072 24.6007C25.0871 22.9016 26.5385 20.5295 27.0937 17.9218C27.2657 17.1162 27.353 16.2861 27.353 15.4545C27.353 14.7116 27.2833 13.9688 27.1459 13.2469ZM15.5 4.57184C17.8496 4.57184 20.142 5.33249 22.017 6.72441L19.0352 9.1584C17.9592 8.55627 16.7442 8.23953 15.5 8.23953C12.6325 8.23953 10.0583 9.92506 8.89966 12.4952L5.98972 10.1198C7.8641 6.81097 11.4245 4.57184 15.5 4.57184ZM4.58533 15.4545C4.58533 13.8579 4.93203 12.3406 5.55412 10.9733L8.55528 13.4231C8.36207 14.081 8.26382 14.7627 8.26382 15.4545C8.26382 16.213 8.38072 16.956 8.61116 17.6677L5.62885 20.1018C4.94541 18.6579 4.58533 17.0633 4.58533 15.4545ZM15.5 26.3372C11.6085 26.3372 8.03217 24.2814 6.07486 20.9467L8.97675 18.5782C9.50939 19.6855 10.3142 20.637 11.3329 21.3537C12.5565 22.2145 13.9975 22.6696 15.5 22.6696C16.6771 22.6696 17.834 22.3835 18.8669 21.8414L21.8697 24.2924C20.0231 25.6153 17.7867 26.3372 15.5 26.3372ZM26.1761 17.7272C25.6839 20.0386 24.4265 22.1487 22.6242 23.6992L19.7111 21.3213C20.8741 20.4896 21.7739 19.3267 22.2768 17.9885C22.3308 17.8449 22.3107 17.6839 22.2231 17.5579C22.1354 17.4319 21.9913 17.3567 21.8375 17.3567H16.2194V13.8018H26.2894C26.3727 14.3457 26.4147 14.8999 26.4147 15.4545C26.4147 16.2208 26.3345 16.9854 26.1761 17.7272Z" fill="white"/>
</svg>
